<?xml version="1.0" encoding="utf-8"?>
<!-- Generator: Adobe Illustrator 20.1.0, SVG Export Plug-In . SVG Version: 6.00 Build 0)  -->
<svg version="1.1" id="Layer_1" xmlns="http://www.w3.org/2000/svg" xmlns:xlink="http://www.w3.org/1999/xlink" x="0px" y="0px"
	 viewBox="0 0 302 72" style="enable-background:new 0 0 302 72;" xml:space="preserve">
<style type="text/css">
	.st0{fill:#FFFFFF;}
</style>
<g>
	<g>
		<path class="st0" d="M79.4,10.5H60.9c-3.2,0-7.2,2.2-8.8,5L40.3,35.7c-1,1.8-3.6,3.4-5.8,3.4H22.4c-4.4,0-8-3.5-8-7.9
			s3.6-7.9,8-7.9h14.4l7.4-12.7H22.4c-11.5,0-20.9,9.3-20.9,20.7s9.3,20.7,20.9,20.7h16.1c3.2,0,7.2-2.2,8.8-5l12-20.4
			c1-1.8,3.6-3.4,5.8-3.4h14.6c4.4,0,8,3.5,8,7.9s-3.6,7.9-8,7.9H66.7c-3.2,0-7.2,2.2-8.8,5L47.8,61.5h15.2l3.6-6.3
			c1-1.8,3.6-3.4,5.8-3.4h7.2c11.5,0,20.9-9.3,20.9-20.7S90.9,10.5,79.4,10.5z M120.3,29c0.9,0,1.8-0.1,2.5-0.3
			c1-0.1,1.5-0.4,2.6-0.9l-0.6-2.5c-0.9,0.4-1.3,0.6-2,0.7c-0.6,0.1-1.2,0.1-1.6,0.1c-2.9,0-4.8-1.8-4.8-4.5c0-3.8,2.8-6.6,6.3-6.6
			c0.7,0,1.5,0.1,2,0.3c0.6,0.1,0.7,0.3,1.5,0.9l1.6-2.2c-0.7-0.6-1.2-0.7-1.8-1c-0.9-0.4-1.9-0.6-3.2-0.6c-2.6,0-4.5,0.6-6.3,2.2
			c-1,0.9-1.9,1.9-2.5,3.1c-0.6,1.3-1,2.8-1,4.2C112.8,26.4,115.6,29,120.3,29z M131.1,18.1c-2.2,1.5-3.5,4.2-3.5,7.4
			c0,2,0.9,3.5,2.2,3.5c0.7,0,1.8-0.3,2.6-1c0.9-0.7,1.3-1.2,2.3-2.5l-0.6,3.2h2.6l1.8-11.1c-2.2-0.3-2.9-0.4-3.9-0.4
			C133,17.2,132,17.5,131.1,18.1z M135,21c-0.1,1.3-0.9,2.6-1.8,3.8c-0.7,0.9-1.5,1.6-1.9,1.6c-0.4,0-0.7-0.6-0.7-1.6
			c0-2.9,1.8-5.4,3.8-5.4c0.3,0,0.4,0,1,0.1L135,21z M147.1,28.7h2.9l0.4-2.8c0.3-2.2,0.9-3.4,2.2-4.7c0.7-0.9,1.5-1.3,2-1.3
			c0.3,0,0.4,0.3,0.4,0.7c0,0.1,0,0.6-0.1,0.9l-1,7.2h2.9l1.3-8.5c0-0.1,0-0.4,0-0.6c0-1.6-0.7-2.3-2.2-2.3c-1.8,0-3.1,0.9-4.7,2.9
			c0-0.4,0-0.7,0-0.9c0-1.3-0.7-2-2.2-2c-1.8,0-3.4,1-4.8,3.2l0.6-3.1l-2.9,0.3l-1.8,10.9h2.9l0.4-2.8c0.1-1,0.1-1.3,0.4-1.9
			c0.1-0.4,0.3-0.7,0.4-1c0.3-0.4,0.7-1.2,1.3-1.8c0.7-0.9,1.5-1.3,2-1.3c0.3,0,0.4,0.3,0.4,0.7c0,0.1,0,0.6,0,0.9L147.1,28.7z
			 M164.9,17.3l-2.9,0.3l-1.8,11.1h2.9L164.9,17.3z M163.6,15.3c0.9,0,1.6-0.6,1.8-1.6c0-0.1,0-0.1,0-0.3c0-1-0.6-1.8-1.2-1.8
			c-0.9,0-1.6,0.6-1.8,1.6c0,0.1,0,0.1,0,0.3C162.3,14.5,162.9,15.3,163.6,15.3z M169.9,25.9c0.1-1,0.1-1.3,0.4-1.9
			c0.1-0.4,0.3-0.7,0.4-1c0.3-0.4,0.7-1.2,1.3-1.8c0.7-0.9,1.5-1.3,2-1.3c0.3,0,0.4,0.3,0.4,0.7c0,0.1,0,0.6-0.1,0.9l-1.2,7.2h2.9
			l1.3-8.5c0-0.1,0-0.4,0-0.6c0-1.6-0.7-2.3-2.2-2.3c-1.8,0-3.4,1-4.8,3.2l0.6-3.1l-2.9,0.3l-1.8,11.1h2.9L169.9,25.9z M182.9,25.9
			c0.1-1,0.1-1.3,0.4-1.9c0.1-0.4,0.3-0.7,0.4-1c0.3-0.4,0.7-1.2,1.3-1.8c0.7-0.9,1.5-1.3,2-1.3c0.3,0,0.4,0.3,0.4,0.7
			c0,0.1,0,0.6-0.1,0.9l-1.2,7.2h2.9l1.3-8.5c0-0.1,0-0.4,0-0.6c0-1.6-0.6-2.3-2.2-2.3c-1.9,0-3.4,1-5,3.2c0.3-0.9,0.3-1,0.4-1.9
			c0-0.1,0.1-0.6,0.1-1l1-6.6l-2.9,0.3l-2.5,17.4h2.9L182.9,25.9z M201.3,27c0.6-0.7,1-1.5,1.3-2.3c0.3-0.9,0.4-1.9,0.4-2.8
			c0-3.1-1.5-4.7-4.1-4.7c-3.8,0-6.4,3.1-6.4,7.3c0,2.9,1.5,4.5,4.1,4.5C198.8,29,200.1,28.4,201.3,27z M195.6,24.5
			c0-1,0.3-2.2,0.9-3.2c0.6-1.2,1.5-1.9,2.2-1.9c0.9,0,1.3,1,1.3,2.5c0,1.8-0.7,3.5-2,4.5c-0.3,0.3-0.7,0.4-1,0.4
			C196.2,27,195.6,25.9,195.6,24.5z M208.1,29c2.3,0,3.9-1.3,3.9-3.4c0-1.2-0.4-1.9-2.2-3.4c-1.3-1-1.5-1.2-1.6-1.6
			c-0.1-0.1-0.1-0.3-0.1-0.4c0-0.6,0.6-0.9,1.5-0.9c0.7,0,1.3,0.1,2.3,0.7l0.9-2.3c-1-0.4-2-0.6-3.4-0.6c-2.6,0-4.2,1.2-4.2,3.2
			c0,0.7,0.1,1.3,0.6,1.8c0.3,0.3,0.6,0.6,0.9,1c0.1,0.1,0.6,0.4,1.3,1.2c0.6,0.4,0.9,0.9,0.9,1.3c0,0.6-0.6,1-1.5,1
			c-0.7,0-1.5-0.1-2.6-0.6l-0.9,2.3c0.9,0.3,1.3,0.3,2.2,0.4C207,29,207.7,29,208.1,29z M222.1,29.1c0.9,0,2-0.6,3.1-1.3
			c0.6-0.4,1-0.9,1.3-1.5c0.1-0.1,0.3-0.4,0.6-0.9l-0.4,3.4h2.8l2.8-17.7l-2.9,0.3l-1,6.3c-1-0.4-1.5-0.6-2.2-0.6
			c-3.4,0-6.3,3.9-6.3,8.6C219.8,27.8,220.7,29.1,222.1,29.1z M223.9,21.1c0.7-1.2,1.6-1.9,2.5-1.9c0.6,0,1,0.1,1.5,0.6l-0.1,1.5
			c-0.1,1.2-1.2,2.8-2.3,3.9c-0.7,0.7-1.5,1.2-1.9,1.2c-0.4,0-0.7-0.4-0.7-1.2C222.7,24,223.3,22.1,223.9,21.1z M242.3,19.5
			c0-1.6-1-2.3-3.2-2.3c-3.8,0-6.4,3.2-6.4,7.9c0,2.6,1,3.9,3.2,3.9c1,0,2-0.3,3.1-0.7c0.3-0.1,0.7-0.4,1.3-0.7
			c0.6-0.4,0.9-0.6,1.6-1.2l-1.2-1.8c-1.6,1.2-1.9,1.5-2.6,1.8c-0.4,0.1-1,0.3-1.3,0.3c-0.4,0-0.9-0.3-1-0.6c-0.1-0.1-0.1-0.4-0.3-1
			l5-2.6C241.7,21.6,242.3,20.8,242.3,19.5z M239.3,20.8l-3.8,2c0.4-1.6,0.7-2.2,1.3-2.9c0.4-0.6,1-0.9,1.6-0.9s1,0.3,1,1
			C239.5,20.4,239.5,20.5,239.3,20.8z M254.2,22h5.7l0.4-2.5h-5.7l0.6-4.1h6.9l0.4-2.6h-9.9l-2.5,15.9h3.1L254.2,22z M272,19.5
			c0-1.6-1-2.3-3.2-2.3c-3.8,0-6.4,3.2-6.4,7.9c0,2.6,1,3.9,3.2,3.9c1,0,2-0.3,3.1-0.7c0.3-0.1,0.7-0.4,1.3-0.7
			c0.6-0.4,0.9-0.6,1.6-1.2l-1.2-1.8c-1.6,1.2-1.9,1.5-2.6,1.8c-0.4,0.1-1,0.3-1.3,0.3c-0.4,0-0.9-0.3-1-0.6c-0.1-0.1-0.1-0.4-0.3-1
			l5-2.6C271.5,21.6,272,20.8,272,19.5z M269.1,20.8l-3.8,2c0.4-1.6,0.7-2.2,1.3-2.9c0.4-0.6,1-0.9,1.6-0.9s1,0.3,1,1
			C269.3,20.4,269.1,20.5,269.1,20.8z M278.9,18.1c-0.4,0.4-0.9,1.2-1.3,1.8c-0.1,0.1-0.3,0.4-0.4,0.9l0.4-3.4l-2.5,0.3l-1.8,11.1
			h2.9l0.3-2c0.3-1.6,0.4-2.2,0.7-3.1s0.7-1.6,1.5-2.2c0.4-0.6,0.9-0.7,1.3-0.7c0.1,0,0.3,0,0.4,0.1l1.2-3.2c-0.4-0.3-0.7-0.4-1-0.4
			C279.9,17.3,279.5,17.5,278.9,18.1z M287.4,18.1c-0.4,0.4-0.9,1.2-1.3,1.8c-0.1,0.1-0.3,0.4-0.4,0.9l0.4-3.4l-2.5,0.3l-1.8,11.1
			h2.9l0.3-2c0.3-1.6,0.4-2.2,0.7-3.1c0.3-0.9,0.7-1.6,1.5-2.2c0.4-0.6,0.9-0.7,1.3-0.7c0.1,0,0.3,0,0.4,0.1l1.2-3.2
			c-0.4-0.3-0.6-0.4-1-0.4C288.4,17.3,287.9,17.5,287.4,18.1z M296.6,17.2c-3.8,0-6.4,3.1-6.4,7.3c0,2.9,1.5,4.5,4.1,4.5
			c2,0,3.4-0.6,4.5-2c0.6-0.7,1-1.5,1.3-2.3s0.4-1.9,0.4-2.8C300.6,18.8,299.2,17.2,296.6,17.2z M295.7,26.5c-0.3,0.3-0.7,0.4-1,0.4
			c-0.9,0-1.5-1-1.5-2.5c0-1,0.3-2.2,0.9-3.2c0.6-1.2,1.5-1.9,2.2-1.9c0.9,0,1.3,1,1.3,2.5C297.6,23.6,296.8,25.5,295.7,26.5z
			 M121.3,36.9h-5.5l-2.5,15.9h3.1l0.9-5.4c0.6,0,1.2,0.1,2,0.1c4.2,0,6.9-2.3,6.9-6.1C126.1,38.5,124.4,36.9,121.3,36.9z M121.9,44
			c-0.7,0.6-1.3,0.7-2.9,0.7c-0.3,0-0.4,0-1,0h-0.3l0.9-5.3h2c1.6,0,2.3,0.7,2.3,2C122.9,42.4,122.5,43.4,121.9,44z M132.8,41.3
			c-3.8,0-6.4,3.1-6.4,7.3c0,2.9,1.5,4.5,4.1,4.5c2,0,3.4-0.6,4.5-2c0.6-0.7,1-1.5,1.3-2.3c0.3-0.9,0.4-1.9,0.4-2.8
			C136.9,42.9,135.5,41.3,132.8,41.3z M131.8,50.4c-0.3,0.3-0.7,0.4-1,0.4c-0.9,0-1.5-1-1.5-2.5c0-1,0.3-2.2,0.9-3.2
			c0.6-1.2,1.5-1.9,2.2-1.9c0.9,0,1.3,1,1.3,2.5C133.8,47.7,133.1,49.4,131.8,50.4z M144.4,42.1c-0.4,0.4-0.9,1.2-1.3,1.8
			c-0.1,0.1-0.3,0.4-0.4,0.9l0.4-3.4l-2.5,0.3l-1.8,11.1h2.9l0.3-2c0.3-1.6,0.4-2.2,0.7-3.1c0.3-0.9,0.7-1.6,1.5-2.2
			c0.4-0.6,0.9-0.7,1.3-0.7c0.1,0,0.3,0,0.4,0.1l1.2-3.2c-0.4-0.3-0.6-0.4-1-0.4C145.4,41.3,144.9,41.5,144.4,42.1z M154.3,43.7
			l0.3-2.2h-2.5l0.6-3.4l-2.8,0.3l-0.4,3.1l-1.9,0.1l-0.3,2h1.9l-0.9,6c-0.1,0.7-0.1,1.5-0.1,1.9c0,0.6,0.1,1,0.3,1.5
			c1.2-0.1,2-0.3,3.1-0.9c0.6-0.3,1.6-0.9,2.2-1.2c0.1-0.1,0.4-0.3,0.9-0.6l-1-1.8c-0.4,0.3-0.7,0.4-1,0.6c-0.4,0.3-0.7,0.3-1.3,0.6
			l1-6.3h2V43.7z M164.1,44.3c-0.3,2.2-0.9,3.4-2.2,4.7c-0.7,0.9-1.5,1.3-2,1.3c-0.3,0-0.4-0.3-0.4-0.7c0-0.1,0-0.4,0.1-0.9l1.2-7.3
			l-2.9,0.3l-1.3,8.3c0,0.3,0,0.4,0,0.7c0,1.5,0.7,2.2,2.2,2.2c1,0,2-0.4,3.1-1.2c0.6-0.4,1-1,1.3-1.5c0.1-0.3,0.3-0.6,0.6-1
			l-0.6,3.4h2.8l1.8-11.4l-2.9,0.3L164.1,44.3z M176.6,41.5c-0.9-0.3-1.3-0.3-2-0.3c-2.9,0-5.1,2.2-5.1,5.1c0,0.7,0.1,1.5,0.6,1.9
			c0.1,0.3,0.4,0.4,0.9,1c-1.5,1.5-2,2.2-2,2.8c0,0.7,0.4,1,1.5,1.2c-1.6,0.9-2.3,1.9-2.3,2.9c0,1.5,1.9,2.6,4.4,2.6
			c3.4,0,6.4-2,6.4-4.5c0-1.6-1.2-2.6-3.1-2.6h-2.9c-0.9,0-1,0-1.2-0.1c-0.1-0.1-0.1-0.1-0.1-0.3c0-0.1,0.3-0.7,0.7-1.3
			c0.6,0.1,0.9,0.1,1.2,0.1c2.6,0,4.8-2.2,4.8-4.8c0-0.6-0.1-0.9-0.3-1.5h1.6l0.4-2l-1.8,0.1h-1.6V41.5z M172.7,53.5h1.9
			c1.2,0,1.6,0.3,1.6,0.9c0,0.4-0.3,0.9-0.7,1.3c-0.6,0.4-1.5,0.7-2.2,0.7c-1,0-1.9-0.4-1.9-0.9C171.2,55,171.8,54.2,172.7,53.5z
			 M175,46.9c-0.4,0.6-0.9,0.9-1.3,0.9c-0.7,0-1.2-0.7-1.2-1.8c0-0.7,0.3-1.5,0.7-2c0.4-0.6,0.9-0.9,1.3-0.9c0.7,0,1.2,0.7,1.2,1.9
			C175.7,45.6,175.4,46.4,175,46.9z M189.3,44.3c-0.3,2.2-0.9,3.4-2.2,4.7c-0.7,0.9-1.5,1.3-2,1.3c-0.3,0-0.4-0.3-0.4-0.7
			c0-0.1,0-0.4,0.1-0.9l1.2-7.3l-2.9,0.3l-1.3,8.3c0,0.3,0,0.4,0,0.7c0,1.5,0.7,2.2,2.2,2.2c1,0,2-0.4,3.1-1.2c0.4-0.4,1-1,1.3-1.5
			c0.1-0.3,0.3-0.6,0.6-1l-0.6,3.4h2.8l1.8-11.4l-2.9,0.3L189.3,44.3z M203.9,43.6c0-1.6-1-2.3-3.2-2.3c-3.8,0-6.4,3.2-6.4,7.9
			c0,2.6,1,3.9,3.2,3.9c1,0,2-0.3,3.1-0.7c0.3-0.1,0.7-0.4,1.3-0.7c0.6-0.4,0.9-0.6,1.6-1.2l-1.2-1.8c-1.6,1.2-1.9,1.5-2.6,1.8
			c-0.4,0.1-1,0.3-1.3,0.3c-0.4,0-0.9-0.3-1-0.6c-0.1-0.1-0.1-0.4-0.3-1l5-2.6C203.3,45.6,203.9,44.8,203.9,43.6z M201,44.9
			l-3.8,2.2c0.4-1.6,0.7-2.2,1.3-2.9c0.4-0.6,1-0.9,1.6-0.9s1,0.3,1,1C201.1,44.5,201,44.6,201,44.9z M209.9,43.4
			c0.7,0,1.3,0.1,2.3,0.7l0.9-2.3c-1-0.4-2-0.6-3.4-0.6c-2.6,0-4.2,1.2-4.2,3.2c0,0.7,0.1,1.3,0.6,1.8c0.3,0.3,0.6,0.6,0.9,1
			c0.1,0.1,0.6,0.4,1.3,1.2c0.6,0.4,0.9,0.9,0.9,1.3c0,0.6-0.6,1-1.5,1c-0.7,0-1.5-0.1-2.6-0.6l-0.7,2.3c0.9,0.3,1.3,0.3,2.2,0.4
			c0.6,0.1,1.3,0.1,1.8,0.1c2.3,0,3.9-1.3,3.9-3.4c0-1.2-0.6-1.9-2.2-3.4c-1.3-1-1.5-1.2-1.6-1.6c-0.1-0.1-0.1-0.3-0.1-0.4
			C208.4,43.7,209,43.4,209.9,43.4z M223.7,43.6c0-1.6-1-2.3-3.2-2.3c-3.8,0-6.4,3.2-6.4,7.9c0,2.6,1,3.9,3.2,3.9c1,0,2-0.3,3.1-0.7
			c0.3-0.1,0.7-0.4,1.3-0.7c0.6-0.4,0.9-0.6,1.6-1.2l-1.2-1.8c-1.6,1.2-1.9,1.5-2.6,1.8c-0.4,0.1-1,0.3-1.3,0.3
			c-0.4,0-0.9-0.3-1-0.6c-0.1-0.1-0.1-0.4-0.3-1l5-2.6C223.2,45.6,223.7,44.8,223.7,43.6z M220.8,44.9l-3.8,2.2
			c0.4-1.6,0.7-2.2,1.3-2.9c0.4-0.6,1-0.9,1.6-0.9s1,0.3,1,1C221,44.5,221,44.6,220.8,44.9z M230.2,46.4c-1.3-1-1.5-1.2-1.6-1.6
			c-0.1-0.1-0.1-0.3-0.1-0.4c0-0.6,0.6-0.9,1.5-0.9c0.7,0,1.3,0.1,2.3,0.7l0.9-2.3c-1-0.4-2-0.6-3.4-0.6c-2.6,0-4.2,1.2-4.2,3.2
			c0,0.7,0.1,1.3,0.6,1.8c0.3,0.3,0.6,0.6,0.9,1c0.1,0.1,0.6,0.4,1.3,1.2c0.6,0.4,0.9,0.9,0.9,1.3c0,0.6-0.6,1-1.5,1
			c-0.7,0-1.5-0.1-2.6-0.6l-0.9,2.3c0.9,0.3,1.3,0.3,2.2,0.4c0.6,0.1,1.3,0.1,1.8,0.1c2.3,0,3.9-1.3,3.9-3.4
			C232.3,48.5,231.8,47.8,230.2,46.4z M236,49.4c-0.7,0-1.2,0-2.2,0.6l0.9,3.2c-0.1,0.7-0.3,1-0.7,1.8c-0.4,0.9-0.6,1-1,1.8h1.8
			c1.8-2,2.9-4.4,2.9-5.8C237.6,49.9,237.2,49.4,236,49.4z M244.2,52.8h10.1l0.3-2.6h-7l0.7-4.2h5.5l0.4-2.6h-5.5l0.6-3.9h6.7
			l0.4-2.6h-9.8L244.2,52.8z M265.6,36.9h-5.5l-2.5,15.9h3.1l0.9-5.4c0.6,0,1.2,0.1,2,0.1c4.2,0,6.9-2.3,6.9-6.1
			C270.4,38.5,268.7,36.9,265.6,36.9z M266.2,44c-0.6,0.6-1.3,0.7-2.9,0.7c-0.3,0-0.4,0-1,0H262l0.9-5.3h2c1.6,0,2.3,0.7,2.3,2
			C267.2,42.4,266.9,43.4,266.2,44z"/>
	</g>
</g>
</svg>
