<?xml version="1.0" encoding="utf-8"?>
<!-- Generator: Adobe Illustrator 20.1.0, SVG Export Plug-In . SVG Version: 6.00 Build 0)  -->
<svg version="1.1" id="Layer_1" xmlns="http://www.w3.org/2000/svg" xmlns:xlink="http://www.w3.org/1999/xlink" x="0px" y="0px"
	 viewBox="0 0 276 78" style="enable-background:new 0 0 276 78;" xml:space="preserve">
<style type="text/css">
	.st0{fill:#FFFFFF;}
</style>
<path class="st0" d="M275,27.7c0-5.5-2.2-10.7-6-14.6c-7.9-8.1-20.9-8.2-28.9-0.3c-0.1,0.1-0.2,0.2-0.3,0.3c-4,3.8-6.1,9.1-6.1,14.6
	c-0.1,5.5,2.1,10.8,6,14.7c3.9,3.9,9.3,6.1,14.8,6.1c4.7,0,9.1-2,12.2-5.4c3.3-3.3,5.1-7.8,5-12.5c0.1-4.6-1.8-9.1-5-12.3
	c-3.1-3.4-7.6-5.4-12.2-5.4c-4,0-7.8,1.5-10.7,4.2c-2.9,2.8-4.4,6.6-4.3,10.6c-0.1,3.9,1.5,7.7,4.4,10.4c2.8,2.9,6.6,4.5,10.7,4.5
	c2.5,0,4.8-0.8,6.8-2.4c1.9-1.7,3.2-3.8,3.9-6.2c-0.9,1.9-2.4,3.5-4.3,4.5c-1.9,1-3.9,1.5-6.1,1.6c-6.9,0-12.5-5.6-12.5-12.5
	c0-3.1,1.2-6.1,3.5-8.3c2.2-2.4,5.3-3.7,8.5-3.7c3.9,0,7.6,1.7,10.1,4.7c2.8,2.7,4.4,6.4,4.4,10.3c0,3.9-1.5,7.7-4.3,10.4
	c-2.6,2.9-6.3,4.5-10.2,4.5c-4.8,0.1-9.4-1.8-12.7-5.2c-3.4-3.3-5.3-7.9-5.3-12.7c0-4.8,1.9-9.3,5.4-12.6c3.3-3.4,7.8-5.3,12.6-5.3
	c6.6-0.1,12.8,3.2,16.3,8.8c1.3,2,2.4,4,3.3,6.2l1.1,2.9L275,27.7z M254.5,21.8c-1.3,0-2.6,0.5-3.6,1.3c-1.1,0.7-1.8,1.8-1.9,3.1
	h10.8C258.8,23.2,257.2,21.8,254.5,21.8L254.5,21.8z M260.7,22c1.5,1.9,2.3,4.2,2.1,6.6h-14.1c-0.1,1.7,0.6,3.3,1.9,4.4
	c1.4,0.9,3,1.4,4.7,1.3c1.1-0.1,2.1-0.5,2.9-1.2c0.8-0.6,1.4-1.4,1.9-2.2l2.7,1.3c-1.6,3.1-4.8,4.9-8.3,4.8c-2.3,0-4.6-0.9-6.2-2.5
	c-1.6-1.7-2.5-3.9-2.5-6.2c-0.1-2.4,0.7-4.7,2.3-6.6c1.6-1.8,4-2.8,6.4-2.7C256.9,19.1,259.2,20.1,260.7,22L260.7,22z"/>
<path class="st0" d="M104.8,54.4c-0.2,2.5,0.5,4.9,2,7c1.2,1.5,3.1,2.4,5,2.4c2,0.1,3.9-0.8,5.2-2.4c1.5-2,2.2-4.5,2-7
	c0.2-2.4-0.6-4.9-2-6.8c-1.2-1.6-3.1-2.5-5.2-2.4c-2,0-3.9,0.9-5,2.5C105.3,49.6,104.6,52,104.8,54.4L104.8,54.4z M129.2,54.4
	c0.2,4.5-1.6,8.8-4.8,11.9c-3.4,3.1-7.9,4.8-12.6,4.7c-4.6,0.1-9.1-1.5-12.6-4.7c-3.3-3.1-5-7.4-4.9-11.9c-0.2-4.5,1.6-8.8,4.8-11.9
	c3.4-3.1,7.9-4.7,12.6-4.5c4.6-0.1,9.1,1.5,12.6,4.7C127.6,45.8,129.4,50.1,129.2,54.4L129.2,54.4z M46.8,38.6v19.9
	c-0.1,1.3,0.4,2.6,1.3,3.5c1,1,2.3,1.4,3.7,1.3c1.6,0,3.2-0.6,4.4-1.7c1.5-1.5,2.2-3.5,2.1-5.6V38.6h10v31.5h-10v-4.3
	c-0.5,1-1.2,1.9-2.1,2.6c-2.4,1.8-5.4,2.7-8.4,2.6c-3.1,0.2-6.2-1-8.3-3.4c-1.9-2.6-2.8-5.9-2.6-9.1V38.6H46.8z M33.6,56H10.7
	c0,1.9,0.5,3.8,1.3,5.5c1.7,2.6,4.7,4,7.8,3.8c2.8,0,5.6-0.8,8.1-2.1c1.8-0.9,3.4-2.1,4.8-3.5v7.6c-4.8,2.4-10.1,3.6-15.5,3.5
	c-5.6,0-9.9-1.9-12.7-5.5c-2.4-3.1-3.7-7-3.6-11c-0.2-4,1.1-8,3.6-11.2c2.8-3.4,7.1-5,12.7-5s9.9,1.7,12.7,5
	c2.5,3.2,3.8,7.2,3.6,11.2L33.6,56L33.6,56z M22.9,47.6c-1.2-1.9-3.3-3-5.5-2.9c-2.2-0.1-4.4,1-5.5,2.9c-0.6,1.1-1,2.2-1.1,3.5h13.2
	C23.8,49.8,23.5,48.6,22.9,47.6L22.9,47.6z M96.4,39.8l-2.5,8.5c-0.8-0.5-1.7-0.8-2.7-0.8c-1.9-0.3-3.8,0.3-5.2,1.6
	c-1.9,1.8-2.9,4.9-2.9,9.4v11.7h-10V38.6h10v8.5l0.6-1.3c0.3-1.2,0.8-2.3,1.5-3.3c1.8-3,3.9-4.7,6.5-4.7c1.8-0.2,3.5,0.5,4.7,1.8
	L96.4,39.8z"/>
<g>
	<path class="st0" d="M171.8,38.3C171.8,38.3,171.8,38.3,171.8,38.3c-8.9,0-16.1,7.2-16.1,16.1c0,2.1,0.6,4.2,1.7,6h-10.9h-0.1
		l6.2-21.7h-11.5l-9,31.4l43.6,0.3h0.2c0,0,0,0,0,0c8.9,0,16-7.2,16-16.1c0-2-0.5-4.1-1.6-5.8h10.9L195.2,70h11.6l6.2-21.5h10.8
		l2.8-9.9L171.8,38.3z M180.2,56.2v0.1h0c-0.6,1.8-1.9,3.3-3.7,4.1c0,0,0,0.1-0.1,0.1l-0.1-0.1c-0.8,0.3-1.6,0.5-2.4,0.5
		c-3.7,0-6.7-2.9-6.7-6.6c0,0,0,0,0,0h0c0-3.7,2.9-6.7,6.6-6.7c3.7,0,6.7,2.9,6.7,6.6C180.5,54.9,180.4,55.6,180.2,56.2
		C180.2,56.2,180.2,56.2,180.2,56.2z"/>
	<path class="st0" d="M179.4,55.7h-1.6l0.1,0.2h0.6l0.2,0.3h-3c0-0.6-0.4-1.1-1-1.1h-0.2l-1,0.2l3.1-5.4c0.1-0.2,0.2-0.4,0.2-0.7
		c0-0.5-0.3-1-0.8-1.2l-3.7,7.4l0.1,0l-4.8,0.8v0.1h4.7l4.1,4.1c0,0,0.1,0,0.1,0c0.2-0.2,0.3-0.5,0.3-0.8c0-0.4-0.1-0.8-0.5-1.1
		l-2.8-2.1h6.7c0,0,0-0.1,0-0.1C179.9,56.2,179.6,56,179.4,55.7z"/>
</g>
</svg>
