<?xml version="1.0" encoding="utf-8"?>
<!-- Generator: Adobe Illustrator 20.1.0, SVG Export Plug-In . SVG Version: 6.00 Build 0)  -->
<svg version="1.1" id="Layer_1" xmlns="http://www.w3.org/2000/svg" xmlns:xlink="http://www.w3.org/1999/xlink" x="0px" y="0px"
	 viewBox="0 0 276 78" style="enable-background:new 0 0 276 78;" xml:space="preserve">
<style type="text/css">
	.st0{fill:#FFFFFF;}
</style>
<g>
	<path class="st0" d="M114.3,32.3L114.3,32.3c2.8,0,5.2,1.7,5.2,3.8v24.2c0,2.1-2.2,3.8-5.2,3.8l0,0c-2.8,0-5.2-1.7-5.2-3.8V36.1
		C109.1,34,111.5,32.3,114.3,32.3L114.3,32.3z M76.5,17.9L76.5,17.9c2.8,0,5.2,2.5,5.2,5.5v11.9h11.6V23.3c0-3.1,2.2-5.5,5.2-5.5
		l0,0c2.8,0,5.2,2.5,5.2,5.5v35.1c0,3.1-2.2,5.5-5.2,5.5l0,0c-2.8,0-5.2-2.5-5.2-5.5v-13H81.7v13c0,3.1-2.2,5.5-5.2,5.5l0,0
		c-2.8,0-5.2-2.5-5.2-5.5V23.3C71.3,20.4,73.6,17.9,76.5,17.9L76.5,17.9z M114.7,19.1c3.1,0,5.7,2.2,5.7,5s-2.5,5-5.7,5
		c-3.1,0-5.7-2.2-5.7-5C109,21.5,111.5,19.1,114.7,19.1L114.7,19.1z"/>
	<path class="st0" d="M138.1,32.1h4.1c7.3,0,7.7,10.2,0.1,10.2h-4.3v16.4c0,2.9-2.2,5.3-5.2,5.3l0,0c-2.8,0-5.2-2.4-5.2-5.3V33.3
		c0-9.1,6.3-14.1,14-14.1c8,0,6.4,8.5,0.3,8.4C139.5,27.7,138.3,29.9,138.1,32.1L138.1,32.1z M162.6,51.2V41V24.6
		c0-2.9-2.2-5.3-5.2-5.3l0,0c-2.8,0-5.2,2.4-5.2,5.3v25.5c0,9.1,6.3,14.1,14,14.1c8,0,6.7-9,0.4-8.8
		C164.1,55.4,162.8,53.5,162.6,51.2L162.6,51.2z M194.2,64.2v-3.9c-2.8,2.7-5.9,3.8-8.8,3.8c-8.3,0-13-7.1-13-16.5V37.5
		c0-2.9,2.2-5.3,5.2-5.3l0,0c2.8,0,5.2,2.4,5.2,5.3v10.1c0,7.4,8.3,7.3,11.6,2.5V37.6c0-2.9,2.2-5.3,5.2-5.3l0,0
		c2.8,0,5.2,2.4,5.2,5.3v25.5c0,9.1-6.3,14.1-14,14.1c-8,0-6.7-9-0.4-8.8C192.6,68.4,193.9,66.6,194.2,64.2L194.2,64.2z"/>
</g>
</svg>
