<?xml version="1.0" encoding="utf-8"?>
<!-- Generator: Adobe Illustrator 20.1.0, SVG Export Plug-In . SVG Version: 6.00 Build 0)  -->
<svg version="1.1" id="Layer_1" xmlns="http://www.w3.org/2000/svg" xmlns:xlink="http://www.w3.org/1999/xlink" x="0px" y="0px"
	 viewBox="0 0 98 100" style="enable-background:new 0 0 98 100;" xml:space="preserve">
<style type="text/css">
	.st0{fill:#927668;}
</style>
<g>
	<g>
		<path class="st0" d="M26.7,35.8c0.8,8.8-5,15.4-5,15.4l0.5,0.4c9.1-11.5,7.2-23.7-4.6-29.4c0.3-1,2-6.4,3.3-10.1
			C31,12.8,36.6,7,38.8,2.5c1.5,0,10.6-0.2,16.8-0.2c4,8.2,12.3,10.2,17.7,9.8c0.4,0.9,1.8,5.7,3,10c-5.3,2.6-8.8,6.9-9.7,11.4
			C65,41,68.5,47,72.1,51.6c0,0,0.1-0.1,0.4-0.3c-8.2-11.1-6.7-23.1,6.7-28c-0.9-1.9-3.5-9.2-5.3-12c-9.6,0.1-14.7-4.5-17.2-10.5
			c-2.7,0.1-13.8-0.4-19.1-0.3c-3.2,8-10.2,10.8-17.1,10.7c-0.3,0.6-2.7,5.5-4.9,12C16.8,23.8,25.9,27,26.7,35.8z M96.2,76.2
			c-5.8-9.3-16.5-18.8-24.5-18.7c-6.5,0-10.1,3.5-11.1,4.9c-4.4,1.7-11.7,1.4-16.6,1c-3.3-0.3-7.4,2.7-6.7,7.3
			c4.8,3.4,20.5,3.1,26.6,1.4c-0.1-0.3-0.1-0.3-0.1-0.5c-3.6,1.1-18.8,1.9-25.3-1.7c0-3.1,2.2-5.6,5.6-5.3c3.4,0.2,12,0.9,17.1-1.3
			c2.9-2.8,7.2-3.7,10.5-3.6c7.9,0.3,17.9,9.8,22.8,17.2c2,5.4,0.2,16.7-1.3,21.6C86.1,95.2,77.3,83.2,71.5,81
			c-9.9,2.6-19.4,5.9-30.3,7.9C30.9,85,21.6,67.5,3.4,55.8c3.7-5.6,17.3,0.6,29.7,12c0.2-0.2,0.4-0.4,0.4-0.4
			C14.6,48.6,1.9,49.5,1,56.8c17.3,9.8,29,29.6,39.9,33.4c13.8-1.6,27-6.5,30.4-6.9c6.3,2.9,15.4,14.2,22.4,16.2
			C96.2,91.9,98.2,82.3,96.2,76.2z"/>
	</g>
</g>
</svg>
