<?xml version="1.0" encoding="utf-8"?>
<!-- Generator: Adobe Illustrator 20.1.0, SVG Export Plug-In . SVG Version: 6.00 Build 0)  -->
<svg version="1.1" id="Layer_1" xmlns="http://www.w3.org/2000/svg" xmlns:xlink="http://www.w3.org/1999/xlink" x="0px" y="0px"
	 viewBox="0 0 98 100" style="enable-background:new 0 0 98 100;" xml:space="preserve">
<style type="text/css">
	.st0{fill:#927668;}
</style>
<g>
	<g>
		<path class="st0" d="M72.8,51.4c-0.4-6.6,1.6-13.8,13.2-18.5c-0.4-2.4-2.1-11-5.2-14.4c-0.7-0.2-1.8-0.3-2.8-0.3c0,0,0,1,0,2
			c0.3,0,0.9,0,1.5,0c1.8,2.5,3.3,6.9,4.1,11.5c-8.1,4.2-13.2,10.1-12.3,19.7c0.9,8.8,6.1,16,13,21.6c-2,3.6-5.7,7.8-8.7,11.1
			c-14.9-6-23.5-0.4-27.1,9.1c-5.4-13.7-17.4-13.1-27.1-9.1c-3.3-3.2-7-8-8.7-11.4c-0.2,0.1-0.5,0.2-0.8,0.4c1.2,2.9,5,9.1,9,13.4
			c8-4.1,21.2-7.7,27.6,7.5c5.1-12,15.4-13.8,27.6-7.4c2-2.4,6.1-7.4,9-13.7C76.5,65.1,73.3,58,72.8,51.4z M19.1,67.7l-1.6-1.3
			c-0.4,0.5-0.8,1-1.3,1.5l1.5,1.4C18.2,68.7,18.6,68.2,19.1,67.7z M20.9,61.6l1.8,1c0.4-0.6,0.7-1.2,1-1.8l-1.8-0.9
			C21.5,60.4,21.2,61,20.9,61.6z M26,52.7l-2-0.2c-0.1,0.6-0.2,1.3-0.3,1.9l2,0.4C25.8,54.1,25.9,53.4,26,52.7z M25.9,46.4
			c-0.1-0.7-0.2-1.3-0.4-2l0-0.1l-1.9,0.6c0.1,0.6,0.3,1.2,0.4,1.8L25.9,46.4z M22.6,38.6c-0.4-0.6-0.9-1.1-1.4-1.6l-1.4,1.4
			c0.4,0.4,0.9,0.9,1.3,1.4L22.6,38.6z M13.4,33.9c0.5,0.2,1.1,0.6,1.7,1l1.1-1.7c-0.7-0.4-1.3-0.8-1.8-1L13.4,33.9z M15.3,26.4
			l-1.9-0.7c-0.2,0.7-0.4,1.3-0.6,1.9l1.9,0.6C14.8,27.7,15,27.1,15.3,26.4z M18.1,19.6l-0.4-0.2l0-0.3l0,0.1l0-1.1l-1.1,0l-0.3,0.5
			c-0.2,0.4-0.5,0.9-0.7,1.4l1.8,0.9C17.6,20.4,17.9,20,18.1,19.6z M72.1,17.9c-0.7-0.1-1.3-0.2-1.9-0.3l-0.4,2
			c0.7,0.1,1.4,0.3,2.1,0.4L72.1,17.9z M26,19l-0.6-1.9c-0.6,0.2-1.2,0.4-1.9,0.5l0.4,2C24.7,19.4,25.4,19.3,26,19z M64.9,15.5
			c-0.5-0.3-1-0.7-1.5-1.1L62,15.9c0.5,0.5,1.1,0.9,1.7,1.3L64.9,15.5z M33.4,14.9l-1.3-1.5c-0.5,0.4-1,0.8-1.5,1.2l1.2,1.6
			C32.3,15.8,32.9,15.4,33.4,14.9z M60.1,9.8c-0.3-0.6-0.5-1.2-0.7-1.8l-1.9,0.7c0.2,0.7,0.5,1.3,0.8,2L60.1,9.8z M38.6,8.2
			l-1.8-0.9c-0.2,0.4-0.5,1-0.9,1.7l1.7,1.1C38,9.3,38.3,8.7,38.6,8.2z M53.4,6h-2v2h2V6z M45.2,6h-2v2h2V6z"/>
	</g>
</g>
</svg>
