<?xml version="1.0" encoding="utf-8"?>
<!-- Generator: Adobe Illustrator 20.1.0, SVG Export Plug-In . SVG Version: 6.00 Build 0)  -->
<svg version="1.1" id="Layer_1" xmlns="http://www.w3.org/2000/svg" xmlns:xlink="http://www.w3.org/1999/xlink" x="0px" y="0px"
	 viewBox="0 0 302 72" style="enable-background:new 0 0 302 72;" xml:space="preserve">
<style type="text/css">
	.st0{fill:#FFFFFF;}
</style>
<g>
	<g>
		<path class="st0" d="M160.8,49.9h11.2c0.8-4.6,2.4-13.5,3.1-17.6c1-5.7-2-10.1-9.2-10.1h-26.3c-1.4,7.9-3.6,21.2-4.8,27.8h11.2
			c0.8-4.9,3.2-18.4,4.2-24.4h8.4c3.5,0,6,2.4,5.5,6.5C163.3,35.3,161.9,43.1,160.8,49.9z M125,22.4c-4.7-0.9-9-0.9-14.7-0.1
			c-8.1,1.1-12.5,3.9-14.5,8.7c-1.1,2.6-1.7,5.8-2,8.7c-0.6,5.2,0.5,10,6.9,10.5c8.7,0.7,15.6,0.6,22.8-0.6l2.3-3.2
			c-6.9,1.1-14.7,0.9-17.3,0.5c-5.2-0.9-4.2-7.1-4.2-7.1c4.7,0.6,10.5,0.5,14.3,0c3.4-0.3,10.2-1.1,12.2-6.5
			C132.9,27.7,131.4,23.5,125,22.4z M121.4,31.8c-1.5,3.1-3.4,3.8-6,4.2c-2.7,0.6-6.5,0.7-10.5,0.3c0.2-1.7,1-4.1,1.5-5.4
			c1.4-3.3,3.4-5.4,7.3-6.3c1.7-0.3,3.2-0.3,5.1,0C121.9,25.6,122.8,29.1,121.4,31.8z M234.9,22.4c-4.7-0.9-9-0.9-14.7-0.1
			c-8.1,1.1-12.5,3.9-14.5,8.7c-1.1,2.6-1.7,5.8-2,8.7c-0.6,5.2,0.5,10,6.9,10.5c8.7,0.7,15.6,0.6,22.8-0.6l2.3-3.2
			c-6.9,1.1-14.7,0.9-17.3,0.5c-5.2-0.9-4.2-7.1-4.2-7.1c4.7,0.6,10.5,0.5,14.3,0c3.4-0.3,10.2-1.1,12.2-6.5
			C242.6,27.7,241.2,23.5,234.9,22.4z M231.1,31.8c-1.5,3.1-3.4,3.8-6,4.2c-2.7,0.6-6.5,0.7-10.5,0.3c0.2-1.7,1-4.1,1.5-5.4
			c1.4-3.3,3.4-5.4,7.3-6.3c1.7-0.3,3.2-0.3,5.1,0C231.6,25.6,232.5,29.1,231.1,31.8z M75.8,22.2C68,23.3,64.9,24.9,64,29.8
			c-0.6,3-2.8,16.4-3.5,20.1h11.2c0.8-4.4,2.6-15.4,3.2-18.6c0.6-3.4,1.8-5.4,5.5-6c3.3-0.6,9.3-0.2,13,0.2l2.4-3.4
			C90.3,21.8,81.1,21.4,75.8,22.2z M197,22.2c1.1-6.3,1.5-9,2.4-11.5c0.9-2.5,3.6-6.3,8.2-6.4l2-3c-5.9-0.3-10.7,1.5-14,3.8
			c-6.4,4.4-8.5,9.9-9.7,16.7L181.2,49c-1,6.1-1.6,9.4-2.6,12.4c-0.8,2.5-3.6,6.3-8.2,6.4l-2,2.8c5.9,0.3,10.7-1.5,14-3.8
			c6.4-4.4,8.7-10.8,9.9-17.6c0.1-0.5,2.2-12.4,3.2-18c0.7-4,2.8-6.3,7.2-6.3l2-3H197V22.2z"/>
	</g>
</g>
</svg>
