<?xml version="1.0" encoding="utf-8"?>
<!-- Generator: Adobe Illustrator 20.1.0, SVG Export Plug-In . SVG Version: 6.00 Build 0)  -->
<svg version="1.1" id="Layer_1" xmlns="http://www.w3.org/2000/svg" xmlns:xlink="http://www.w3.org/1999/xlink" x="0px" y="0px"
	 viewBox="0 0 276 78" style="enable-background:new 0 0 276 78;" xml:space="preserve">
<style type="text/css">
	.st0{fill:#FFFFFF;}
	.st1{fill:#EAEAE9;}
	.st2{fill:#E2E2E2;}
</style>
<polygon class="st0" points="104.4,41.7 136.5,41.7 136.5,63.1 104.4,63.1 "/>
<polygon class="st0" points="87,76.7 108.4,1.3 140.8,1.3 162.2,76.7 140.8,76.7 124.5,23 108.4,76.7 "/>
<polygon class="st0" points="87,76.7 87,23 71,23 71,1.3 124.5,1.3 124.5,23 108.4,23 108.4,76.7 "/>
<polygon class="st1" points="87,76.7 108.4,76.7 108.4,23 124.5,23 124.5,1.3 108.4,1.3 "/>
<path class="st0" d="M178.3,1.3h-37.4v75.4h21.4V55h16C193,55,205,43,205,28.3S193.2,1.3,178.3,1.3z M178.3,33.7h-16V23h16
	c2.9,0,5.1,2.4,5.1,5.3C183.6,31.2,181.2,33.7,178.3,33.7z"/>
<polygon class="st2" points="140.8,76.7 162.2,76.7 140.8,1.3 "/>
</svg>
